<?xml version="1.0" encoding="UTF-8" standalone="no"?>
<!-- Generator: Adobe Illustrator 23.0.1, SVG Export Plug-In . SVG Version: 6.00 Build 0)  -->

<svg
   version="1.1"
   id="Layer_1"
   x="0px"
   y="0px"
   viewBox="0 0 176 176"
   enable-background="new 0 0 176 176"
   xml:space="preserve"
   sodipodi:docname="ytmcoverfix.svg"
   inkscape:version="1.2.2 (b0a8486541, 2022-12-01)"
   xmlns:inkscape="http://www.inkscape.org/namespaces/inkscape"
   xmlns:sodipodi="http://sodipodi.sourceforge.net/DTD/sodipodi-0.dtd"
   xmlns="http://www.w3.org/2000/svg"
   xmlns:svg="http://www.w3.org/2000/svg"
   xmlns:ns="&amp;ns_sfw;"><defs
   id="defs61" /><sodipodi:namedview
   id="namedview59"
   pagecolor="#ffffff"
   bordercolor="#666666"
   borderopacity="1.0"
   inkscape:showpageshadow="2"
   inkscape:pageopacity="0.0"
   inkscape:pagecheckerboard="0"
   inkscape:deskcolor="#d1d1d1"
   showgrid="false"
   inkscape:zoom="1.65625"
   inkscape:cx="-326.64151"
   inkscape:cy="168.45283"
   inkscape:window-width="2560"
   inkscape:window-height="1368"
   inkscape:window-x="0"
   inkscape:window-y="359"
   inkscape:window-maximized="1"
   inkscape:current-layer="XMLID_167_" />
<metadata
   id="metadata52">
	<ns:sfw>
		<ns:slices />
		<ns:sliceSourceBounds
   bottomLeftOrigin="true"
   height="176"
   width="176"
   x="8"
   y="-184" />
	</ns:sfw>
</metadata>
<g
   id="XMLID_167_">
	<circle
   id="XMLID_791_"
   fill="#ff0000"
   cx="88"
   cy="88"
   r="88" />
	
	
<g
   style="clip-rule:evenodd;fill:#ffffff;fill-opacity:1;fill-rule:evenodd;stroke-linejoin:round;stroke-miterlimit:2"
   id="g1004"
   transform="matrix(4.5509499,0,0,4.5509499,15.218934,15.150669)"><path
     d="m 27.985,21.015 v -14 c 0,-0.796 -0.316,-1.559 -0.879,-2.121 -0.562,-0.563 -1.325,-0.879 -2.121,-0.879 -3.463,0 -10.537,0 -14,0 -0.552,0 -1,0.448 -1,1 0,0.552 0.448,1 1,1 h 14 c 0.265,0 0.519,0.105 0.707,0.293 0.188,0.188 0.293,0.442 0.293,0.707 v 14 c 0,0.552 0.448,1 1,1 0.552,0 1,-0.448 1,-1 z"
     id="path992"
     style="fill:#ffffff;fill-opacity:1" /><path
     d="M 24,11 C 24,10.204 23.684,9.441 23.121,8.879 22.559,8.316 21.796,8 21,8 17.537,8 10.463,8 7,8 6.204,8 5.441,8.316 4.879,8.879 4.316,9.441 4,10.204 4,11 4,14.463 4,21.537 4,25 4,25.796 4.316,26.559 4.879,27.121 5.441,27.684 6.204,28 7,28 c 3.463,0 10.537,0 14,0 0.796,0 1.559,-0.316 2.121,-0.879 C 23.684,26.559 24,25.796 24,25 Z M 9.995,20.003 H 9.993 c -1.105,0 -2.002,0.897 -2.002,2.002 0,1.105 0.897,2.002 2.002,2.002 1.105,0 2.002,-0.897 2.002,-2.002 v -7.122 c 0,0 6.001,-0.75 6.001,-0.75 L 17.998,18 c -1.104,0 -2.001,0.897 -2.001,2.002 0,1.105 0.897,2.001 2.001,2.001 1.105,0 2.002,-0.896 2.002,-2.001 l -0.005,-7.003 c 0,-0.286 -0.124,-0.559 -0.339,-0.749 -0.215,-0.19 -0.501,-0.278 -0.785,-0.242 l -8,1 C 10.37,13.07 9.995,13.496 9.995,14 Z"
     id="path994"
     style="fill:#ffffff;fill-opacity:1" /></g></g>
</svg>
